<svg xmlns="http://www.w3.org/2000/svg" version="1.1" xmlns:xlink="http://www.w3.org/1999/xlink" xmlns:svgjs="http://svgjs.dev/svgjs" width="100%" height="100%" viewBox="0 0 1000 600"><rect width="1000" height="600" x="0" y="0" fill="#8bd8bd"/><g><rect width="333.3333333333333" height="333.3333333333333" rx="13.333333333333334" ry="13.333333333333334" y="331.51769961527987" fill="#243665" transform="matrix(0.4041442679266004,0,0,0.4041442679266004,0,98.6616346079976)" x="309.29550170898443"/><path d="M374.0383663980371 561.3634968256026L422.2953659395378 423.1843765246369L444.32392134983667 423.1843765246369L492.9981283801688 561.3634968256026L505.40309771475626 563.3660927719934L505.40309771475626 573.1843756758261L452.52900196352124 573.1843756758261L452.52900196352124 563.3660927719934L469.1616738516004 561.3634968256026L459.7327846040104 531.741765118572L401.26810850243436 531.741765118572L391.8670330874331 561.3634968256026L409.0837954598762 563.3660927719934L409.0837954598762 573.1843756758261L361.6055832308609 573.1843756758261L361.6055832308609 563.3660927719934L374.0383663980371 561.3634968256026ZM455.95010337193884 519.9208862683483L434.9228459348354 455.22591166688983L429.91635606885836 437.61975563820397L425.10456303100267 455.64311915572125L404.8839067389733 519.9208862683483L455.95010337193884 519.9208862683483ZM512.2174866990028 573.1843756758261L512.2174866990028 563.3660927719934L527.2369562969338 562.1700979706767L527.2369562969338 477.44916390531006L512.8015771833668 473.86117950135986L512.8015771833668 463.04159862433175L540.4485267765954 459.4258003877928L540.837920432838 459.4258003877928L545.2603198144511 463.04159862433175L545.2603198144511 466.6573968608707L544.6484154974983 482.26095694316575L545.2603198144511 482.26095694316575Q547.2629157608419 478.8676693673369 552.4641024549403 473.44397201252843Q557.6652891490385 468.04808849030877 565.8703697627232 463.54224761092945Q574.1032642089965 459.03640673155013 583.6990364521191 459.03640673155013L583.6990364521191 459.03640673155013Q587.7042283449007 459.03640673155013 590.3187286082443 460.0377047047455L590.3187286082443 460.0377047047455L590.3187286082443 482.4556537712871Q588.9002231462173 481.4543557980917 585.8128877288648 480.5643131552513Q582.6977384789236 479.67427051241094 578.8872434142634 479.67427051241094L578.8872434142634 479.67427051241094Q562.2823853587729 479.67427051241094 548.0695169059159 489.8819470724863L548.0695169059159 489.8819470724863L548.0695169059159 561.9754011425554L573.4913598920436 563.5607896001147L573.4913598920436 573.1843756758261L512.2174866990028 573.1843756758261Z " fill="#8bd8bd" transform="matrix(0.4041442679266004,0,0,0.4041442679266004,0,98.6616346079976)"/><path d="M737.1820366283333 560.5337664675849L780.7312290788337 435.83498370442294L800.6107451715117 435.83498370442294L844.5364436086159 560.5337664675849L855.7312216103006 562.3409952032828L855.7312216103006 571.2014360880245L808.0153629080521 571.2014360880245L808.0153629080521 562.3409952032828L823.0254015739882 560.5337664675849L814.5163662767435 533.8018414187186L761.7553273540046 533.8018414187186L753.2713924558669 560.5337664675849L768.8085395030483 562.3409952032828L768.8085395030483 571.2014360880245L725.9621582275416 571.2014360880245L725.9621582275416 562.3409952032828L737.1820366283333 560.5337664675849ZM811.1027119982028 523.134171798279L792.1268102733738 464.7506434755909L787.6087384341289 448.8620908409127L783.2663693886323 465.12714946219467L765.0183792379039 523.134171798279L811.1027119982028 523.134171798279ZM861.8808193914953 571.2014360880245L861.8808193914953 562.3409952032828L875.4350349092302 561.2616780416854L875.4350349092302 484.8058623620173L862.4079277727404 481.5679108772251L862.4079277727404 471.8038556246345L887.3577244850156 468.5408037407353L887.7091300725125 468.5408037407353L891.7000935305122 471.8038556246345L891.7000935305122 475.06690750853363L891.1478847501601 489.1482314075139L891.7000935305122 489.1482314075139Q893.5073222662102 486.0859827164701 898.2010968992037 481.1914048906213Q902.894871532197 476.3219274638795 910.2994892687374 472.255662808559Q917.7292074043847 468.18939815323847 926.388845096271 468.18939815323847L926.388845096271 468.18939815323847Q930.003302567667 468.18939815323847 932.3627400837172 469.0930125210875L932.3627400837172 469.0930125210875L932.3627400837172 489.3239342012623Q931.0826197292644 488.4203198334133 928.2964754283967 487.617107061992Q925.4852307284219 486.81389429057066 922.0464760507745 486.81389429057066L922.0464760507745 486.81389429057066Q907.0615377839451 486.81389429057066 894.2352338403108 496.02574076280905L894.2352338403108 496.02574076280905L894.2352338403108 561.085975247937L917.1769986240325 562.5166979970313L917.1769986240325 571.2014360880245L861.8808193914953 571.2014360880245ZM975.184020960117 573.0086648237224Q964.8928573262812 573.0086648237224 959.822576706684 568.314890190729Q954.7773964861938 563.6211155577356 954.7773964861938 552.2255343631955L954.7773964861938 552.2255343631955L954.7773964861938 482.8229308325709L941.750289349704 482.8229308325709L941.750289349704 474.6904015219299Q942.653903717553 474.5146987281815 946.8205699693011 473.43538156658406Q950.9621358219424 472.3560644049866 952.4179589701436 471.4524500371376L952.4179589701436 471.4524500371376Q955.304504867439 469.82092409518805 956.9360308093885 464.9263462693393L956.9360308093885 464.9263462693393Q958.3918539575897 461.51269199079866 960.3747854870361 453.9072710614029Q962.3577170164825 446.3269505311141 962.7091226039794 444.8711273829129L962.7091226039794 444.8711273829129L973.376792224419 444.8711273829129L973.7532982110228 470.9002412567855L1003.9239779375365 470.9002412567855L1003.9239779375365 482.8229308325709L973.7532982110228 482.8229308325709L973.7532982110228 538.3199132579637Q973.7532982110228 548.6110768917995 974.3808081886956 552.7777431435476Q975.0083181663686 556.9193089961889 977.0916512922427 558.1994293506416Q979.1749844181167 559.4544493059874 984.2201646386069 559.4544493059874L984.2201646386069 559.4544493059874Q989.1147424644556 559.4544493059874 994.9882358554742 558.1994293506416Q1000.8617292464927 556.9193089961889 1004.0996807312849 555.4885862470946L1004.0996807312849 555.4885862470946L1006.810523834832 563.6211155577356Q1002.4681547893354 566.8590670425278 992.8045011331725 569.9464161326786Q983.1408474770095 573.0086648237224 975.184020960117 573.0086648237224L975.184020960117 573.0086648237224ZM1027.593654295359 560.9102724541885L1027.593654295359 436.3871924847751L1012.4079128356744 434.40426095532865L1012.4079128356744 426.62313723218455L1041.8757813871944 423.18438255453697L1042.2271869746914 423.18438255453697L1046.218150432691 425.8952256580839L1046.218150432691 467.8379925657417L1045.4902388585906 483.19943681917465Q1051.2633306531811 477.95345340582907 1061.4038918923757 473.2596787728356Q1071.5193527324632 468.5408037407353 1081.810516366299 468.5408037407353L1081.810516366299 468.5408037407353Q1093.2060975608392 468.5408037407353 1099.5313981357817 472.8831727862319Q1105.8566987107251 477.2255418317285 1108.3918390205235 486.1612839137908Q1110.9018789312154 495.12212639496005 1110.9018789312154 510.3078678546446L1110.9018789312154 510.3078678546446L1110.9018789312154 560.7094692613332L1123.5524800811013 562.3409952032828L1123.5524800811013 571.2014360880245L1080.3797936172045 571.2014360880245L1080.3797936172045 562.3409952032828L1092.1267803992414 560.7094692613332L1092.1267803992414 510.1070646617893Q1092.1267803992414 499.46449544045663 1090.6709572510404 493.3901988565828Q1089.2151341028393 487.3410026718159 1085.2492710439465 484.35405517809284Q1081.2834079850536 481.39220808347665 1073.3265814681608 481.39220808347665L1073.3265814681608 481.39220808347665Q1066.8255780994696 481.39220808347665 1059.3958599638222 484.6301595682689Q1051.9912422272819 487.8932114521681 1046.3938532264397 492.2355804976646L1046.3938532264397 492.2355804976646L1046.3938532264397 560.7094692613332L1058.8687515825768 562.3409952032828L1058.8687515825768 571.2014360880245L1016.750281881171 571.2014360880245L1016.750281881171 562.3409952032828L1027.593654295359 560.9102724541885ZM1219.1599002793469 572.832962029974Q1214.1147200588566 572.832962029974 1211.6548809463789 570.8500305005276Q1209.2201422330077 568.8419985719742 1209.2201422330077 564.3239267327292L1209.2201422330077 564.3239267327292L1209.2201422330077 558.1994293506416Q1203.2713476446684 564.1482239389809 1194.3105051634993 568.6662957782258Q1185.3747630814369 573.1843676174707 1176.3386194029472 573.1843676174707L1176.3386194029472 573.1843676174707Q1159.5213520013126 573.1843676174707 1152.4681398522694 564.1482239389809Q1145.4400281023327 555.1120802604909 1145.4400281023327 534.3289497999639L1145.4400281023327 534.3289497999639L1145.4400281023327 481.9193164647219L1135.2994668631382 479.0327705674265L1135.2994668631382 471.0759440505339L1160.60066916291 468.7416069335907L1160.8014723557658 468.7416069335907L1164.2151266343062 470.9002412567855L1164.2151266343062 532.8982270508695Q1164.2151266343062 543.3650934784539 1165.771351378935 549.2385868694723Q1167.302475724457 555.1120802604909 1171.1930375860288 557.9233249604655Q1175.058499048494 560.7094692613332 1182.4882171841414 560.7094692613332L1182.4882171841414 560.7094692613332Q1189.7171321269334 560.7094692613332 1196.0424327018764 557.6472205702894Q1202.3677332768198 554.5849718792456 1207.061507909813 550.4183056274974L1207.061507909813 550.4183056274974L1207.061507909813 481.9193164647219L1194.0344007733233 479.0327705674265L1194.0344007733233 471.0759440505339L1221.519337795397 468.7416069335907L1221.6950405891453 468.7416069335907L1225.8617068408935 470.9002412567855L1225.8617068408935 561.989589615786L1236.7050792550813 561.989589615786L1236.5042760622264 570.1221189264269Q1231.4590958417357 571.3771388817728 1227.7442367739122 572.1050504558733Q1224.0544781051954 572.832962029974 1219.1599002793469 572.832962029974L1219.1599002793469 572.832962029974ZM1251.5143147281624 571.2014360880245L1251.5143147281624 562.3409952032828L1265.0685302458974 561.2616780416854L1265.0685302458974 484.8058623620173L1252.0665235085144 481.5679108772251L1252.0665235085144 471.8038556246345L1276.9912198216825 468.5408037407353L1277.3677258082867 468.5408037407353L1281.333588867179 471.8038556246345L1281.333588867179 475.06690750853363L1280.781380086827 489.1482314075139L1281.333588867179 489.1482314075139Q1283.1408176028772 486.0859827164701 1287.8345922358708 481.1914048906213Q1292.528366868864 476.3219274638795 1299.9580850045113 472.255662808559Q1307.3627027410516 468.18939815323847 1316.022340432938 468.18939815323847L1316.022340432938 468.18939815323847Q1319.636797904334 468.18939815323847 1321.9962354203844 469.0930125210875L1321.9962354203844 469.0930125210875L1321.9962354203844 489.3239342012623Q1320.7412154650383 488.4203198334133 1317.929970765064 487.617107061992Q1315.118726065089 486.81389429057066 1311.7050717865486 486.81389429057066L1311.7050717865486 486.81389429057066Q1296.6950331206122 486.81389429057066 1283.868729176978 496.02574076280905L1283.868729176978 496.02574076280905L1283.868729176978 561.085975247937L1306.8104939606997 562.5166979970313L1306.8104939606997 571.2014360880245L1251.5143147281624 571.2014360880245ZM1334.094627789918 571.2014360880245L1334.094627789918 562.3409952032828L1349.1046664558544 560.5337664675849L1349.1046664558544 448.13417926681205L1334.998242157767 445.77474175076196L1334.998242157767 436.91430086602037L1358.6930189146965 436.91430086602037Q1363.7381991351867 436.91430086602037 1372.4229372261798 436.21148969102666L1372.4229372261798 436.21148969102666Q1381.4590809046695 435.48357811692614 1386.5042611251602 435.48357811692614L1386.5042611251602 435.48357811692614Q1413.0855837793847 435.48357811692614 1424.3807633774973 444.06791461149163Q1435.6759429756098 452.6522511060571 1435.6759429756098 471.0759440505339L1435.6759429756098 471.0759440505339Q1435.6759429756098 483.9022479941683 1428.5223292301384 494.5699176146079Q1421.393815883774 505.2375872350475 1408.9189175276365 509.0277475001919L1408.9189175276365 509.0277475001919Q1414.717109721334 512.1150965903427 1419.6869887445037 519.5950155242037Q1424.6568677676732 527.1000348571719 1431.8857827104653 540.4785475811584L1431.8857827104653 540.4785475811584Q1437.4831717113075 550.5940084212459 1440.4701192050306 555.2877830542393Q1443.4319662996468 560.0066580863396 1446.142809403194 560.5337664675849L1446.142809403194 560.5337664675849L1453.1960215522377 562.3409952032828L1453.1960215522377 571.2014360880245L1428.2713252390695 571.2014360880245Q1425.359678942667 571.2014360880245 1421.7452214712712 564.9765371095091Q1418.130763999875 558.7265377318869 1412.1819694115356 545.724530994504L1412.1819694115356 545.724530994504Q1405.6809660428444 531.4424039026685 1400.886789813423 523.0337702018514Q1396.0926135840023 514.6251365010343 1391.3988389510087 512.2907993840911L1391.3988389510087 512.2907993840911Q1372.0464312395761 512.2907993840911 1368.43197376818 512.1150965903427L1368.43197376818 512.1150965903427L1368.43197376818 560.5337664675849L1386.3285583314114 562.3409952032828L1386.3285583314114 571.2014360880245L1334.094627789918 571.2014360880245ZM1389.9430158028076 502.52674413150044Q1401.5142997910962 502.52674413150044 1408.1910059535358 494.9464236012116Q1414.8928125150828 487.3410026718159 1414.8928125150828 472.3560644049866L1414.8928125150828 472.3560644049866Q1414.8928125150828 459.1532544747485 1408.115704756215 452.2004439221326Q1401.3385969973478 445.2476333695167 1384.697032389462 445.2476333695167L1384.697032389462 445.2476333695167Q1378.923940594871 445.2476333695167 1373.15084880028 445.95044454451033L1373.15084880028 445.95044454451033Q1369.5363913288843 446.3269505311141 1368.43197376818 446.3269505311141L1368.43197376818 446.3269505311141L1368.43197376818 502.35104133775206Q1371.142816871727 502.52674413150044 1379.6518521689718 502.52674413150044L1379.6518521689718 502.52674413150044L1389.9430158028076 502.52674413150044ZM1461.15284806913 520.7747342822288Q1461.15284806913 504.50967566094687 1467.82955423157 492.58698608516147Q1474.5313607931166 480.6642965093761 1485.4500344046255 474.4142971317538Q1496.393808415241 468.18939815323847 1508.8687067713786 468.18939815323847L1508.8687067713786 468.18939815323847Q1531.634768761352 468.18939815323847 1543.1056511532129 482.6472280388225Q1554.5765335450737 497.1050579244065 1554.5765335450737 520.5990314884805L1554.5765335450737 520.5990314884805Q1554.5765335450737 537.0397929035108 1547.8998273826342 548.9624824792963Q1541.2231212201941 560.9102724541885 1530.2793472095786 567.0347698362763Q1519.3355731989627 573.1843676174707 1506.8857752419322 573.1843676174707L1506.8857752419322 573.1843676174707Q1484.0946128528522 573.1843676174707 1472.6237304609908 558.7265377318869Q1461.15284806913 544.2687078463028 1461.15284806913 520.7747342822288L1461.15284806913 520.7747342822288ZM1507.9650924035295 562.893203983635Q1520.4399907596671 562.893203983635 1527.1166969221072 552.5769399506922Q1533.7934030845468 542.2857763168565 1533.7934030845468 522.0548546366816L1533.7934030845468 522.0548546366816Q1533.7934030845468 501.9745353511483 1527.6689057024591 490.2275485691113Q1521.5193079212645 478.48056178707435 1507.9650924035295 478.48056178707435L1507.9650924035295 478.48056178707435Q1495.490194047392 478.48056178707435 1488.7130862885247 488.79682582001703Q1481.935978529657 499.08798945385286 1481.935978529657 519.3440115331346L1481.935978529657 519.3440115331346Q1481.935978529657 539.399230419561 1488.2612791046 551.146217201598Q1494.5865796795429 562.893203983635 1507.9650924035295 562.893203983635L1507.9650924035295 562.893203983635ZM1610.0735159704668 573.1843676174707Q1599.2301435562786 573.1843676174707 1590.1939998777889 567.7626814103768Q1581.1578561992987 562.3409952032828 1575.8114711895255 551.146217201598Q1570.4901865788588 539.9263388008062 1570.4901865788588 523.4855773857759L1570.4901865788588 523.4855773857759Q1570.4901865788588 508.1241331323429 1576.8154871538022 495.4735319824569Q1583.1407877287452 482.8229308325709 1594.9881761072097 475.51871469245816Q1606.8104640865677 468.18939815323847 1622.899819914101 468.18939815323847L1622.899819914101 468.18939815323847Q1632.1116663863395 468.18939815323847 1639.7170873157352 470.1723296826849L1639.7170873157352 470.1723296826849L1639.7170873157352 436.3871924847751L1621.2682939721512 434.20345776247336L1621.2682939721512 426.4474344384361L1653.7984112147155 423.18438255453697L1654.3506199950675 423.18438255453697L1658.3164830539604 426.07092845183234L1658.3164830539604 561.989589615786L1668.8084498806516 561.989589615786L1668.8084498806516 570.2978217201754Q1663.010257686954 571.5528416755211 1658.7682902378851 572.2807532496219Q1654.5263227888158 573.0086648237224 1649.8325481558227 573.0086648237224L1649.8325481558227 573.0086648237224Q1645.138773522829 573.0086648237224 1643.1307415942756 571.3771388817728Q1641.1478100648296 569.7456129398232 1641.1478100648296 564.5247299255846L1641.1478100648296 564.5247299255846L1641.1478100648296 558.7265377318869Q1636.1026298443394 564.8761355130814 1627.8696989372706 569.0428017648295Q1619.636768030202 573.1843676174707 1610.0735159704668 573.1843676174707L1610.0735159704668 573.1843676174707ZM1617.3024309132584 560.3580636738365Q1624.355643062302 560.3580636738365 1630.4801404443897 557.1954133863649Q1636.6297382255843 554.0327630988934 1639.7170873157352 549.8660968471453L1639.7170873157352 549.8660968471453L1639.7170873157352 483.7265452004199Q1638.2612641675341 481.5679108772251 1632.9399795568675 479.8359833388478Q1627.5935945470942 478.1291561995775 1621.644799958755 478.1291561995775L1621.644799958755 478.1291561995775Q1607.538375660668 478.1291561995775 1599.129741959851 488.8721270173378Q1590.7211082590338 499.64019823420506 1590.7211082590338 522.0548546366816L1590.7211082590338 522.0548546366816Q1590.7211082590338 541.5578647427558 1598.1508263946812 550.9705144078496Q1605.5554441312215 560.3580636738365 1617.3024309132584 560.3580636738365L1617.3024309132584 560.3580636738365ZM1698.803426813417 560.5337664675849L1698.803426813417 448.13417926681205L1684.6970025153296 445.95044454451033L1684.6970025153296 436.91430086602037L1708.7431848597557 436.91430086602037Q1715.2441882284475 436.91430086602037 1721.5694888033904 436.3871924847751L1721.5694888033904 436.3871924847751Q1731.3335440559808 435.6592809106745 1740.0182821469743 435.6592809106745L1740.0182821469743 435.6592809106745Q1766.2230988145948 435.83498370442294 1777.066471228783 445.4233361632651Q1787.9098436429708 454.98658822300035 1787.9098436429708 474.33899593443306L1787.9098436429708 474.33899593443306Q1787.9098436429708 488.79682582001703 1781.2080370814242 499.46449544045663Q1774.5313309189842 510.1070646617893 1762.6839425405196 515.7295540617386Q1750.8616545611621 521.326943062581 1735.500210307729 521.326943062581L1735.500210307729 521.326943062581Q1730.2542268943835 521.326943062581 1724.8325406872896 521.050838672405Q1719.4108544801957 520.7747342822288 1718.1307341257425 520.5990314884805L1718.1307341257425 520.5990314884805L1718.1307341257425 560.3580636738365L1742.9048280442694 562.3409952032828L1742.9048280442694 571.2014360880245L1683.793388147481 571.2014360880245L1683.793388147481 562.3409952032828L1698.803426813417 560.5337664675849ZM1718.1307341257425 510.65927344214145Q1723.2010147453398 511.56288780999046 1735.500210307729 511.56288780999046L1735.500210307729 511.56288780999046Q1749.7572370004577 511.56288780999046 1758.7180794816268 502.8781497189973Q1767.6538215636892 494.21851202711105 1767.6538215636892 474.5146987281815L1767.6538215636892 474.5146987281815Q1767.6538215636892 458.9775516810001 1759.8977982396518 452.2004439221326Q1752.1166745165078 445.4233361632651 1735.6759131014774 445.4233361632651L1735.6759131014774 445.4233361632651Q1729.8777209077798 445.4233361632651 1723.376717539088 446.1512477373657L1723.376717539088 446.1512477373657Q1719.4108544801957 446.5026533248625 1718.1307341257425 446.5026533248625L1718.1307341257425 446.5026533248625L1718.1307341257425 510.65927344214145ZM1800.5604447928567 544.0930050525544Q1800.5604447928567 527.1000348571719 1817.5283145891326 519.0679071429586Q1834.521284784515 511.01067902963825 1860.5503986583876 510.483570648393L1860.5503986583876 510.483570648393L1860.5503986583876 505.41329002879587Q1860.5503986583876 496.92935513065805 1858.74316992269 492.0347773048093Q1856.9359411869918 487.16529987806746 1852.5182709441742 484.906263958445Q1848.07550030225 482.6472280388225 1839.9429709916094 482.6472280388225L1839.9429709916094 482.6472280388225Q1830.731124519371 482.6472280388225 1823.4018079801508 485.2576695459418Q1816.0975918400386 487.8932114521681 1808.8686768972461 491.68337171731247L1808.8686768972461 491.68337171731247L1804.3506050580013 482.29582245132565Q1806.6849421749448 480.2877905227723 1813.0102427498873 477.04983903798006Q1819.3355433248307 473.7867871540809 1827.6688758283267 471.25164684428233Q1835.9771079327165 468.7416069335907 1844.285340037106 468.7416069335907L1844.285340037106 468.7416069335907Q1857.1116439807402 468.7416069335907 1864.6166633137082 472.255662808559Q1872.1216826466762 475.76971868352734 1875.3596341314687 483.55084240667145Q1878.622686015368 491.33196612981567 1878.622686015368 504.33397286719844L1878.622686015368 504.33397286719844L1878.622686015368 562.3409952032828L1889.2903556358074 562.3409952032828L1889.2903556358074 570.2978217201754Q1885.6758981644111 571.2014360880245 1880.1538103608896 572.1050504558733Q1874.656822956475 573.0086648237224 1870.4901567047268 573.0086648237224L1870.4901567047268 573.0086648237224Q1865.4198760851295 573.0086648237224 1863.6126473494319 571.4775404782005Q1861.8054186137338 569.9464161326786 1861.8054186137338 564.700432719333L1861.8054186137338 564.700432719333L1861.8054186137338 558.7265377318869Q1856.3837324066394 564.1482239389809 1848.5273074861748 568.6662957782258Q1840.6708825657097 573.1843676174707 1830.731124519371 573.1843676174707L1830.731124519371 573.1843676174707Q1817.729117781988 573.1843676174707 1809.1447812874226 565.6793482845028Q1800.5604447928567 558.1994293506416 1800.5604447928567 544.0930050525544L1800.5604447928567 544.0930050525544ZM1838.512248242515 560.9102724541885Q1843.2060228755086 560.9102724541885 1849.3556206567027 557.9986261577862Q1855.4801180387904 555.1120802604909 1860.5503986583876 551.146217201598L1860.5503986583876 551.146217201598L1860.5503986583876 520.0468227081283Q1840.846585359458 520.0468227081283 1830.8315261157986 526.121119292002Q1820.7913664730318 532.170315476769 1820.7913664730318 541.9343707293597L1820.7913664730318 541.9343707293597Q1820.7913664730318 551.6733255828433 1825.5855427024526 556.2917990185159Q1830.3797189318739 560.9102724541885 1838.512248242515 560.9102724541885L1838.512248242515 560.9102724541885ZM1984.1698642599522 572.832962029974Q1979.099583640355 572.832962029974 1976.6648449269842 570.8500305005276Q1974.2301062136135 568.8419985719742 1974.2301062136135 564.3239267327292L1974.2301062136135 564.3239267327292L1974.2301062136135 558.1994293506416Q1968.2562112261671 564.1482239389809 1959.3204691441047 568.6662957782258Q1950.3596266629356 573.1843676174707 1941.3234829844455 573.1843676174707L1941.3234829844455 573.1843676174707Q1924.5313159819184 573.1843676174707 1917.4781038328747 564.1482239389809Q1910.424891683831 555.1120802604909 1910.424891683831 534.3289497999639L1910.424891683831 534.3289497999639L1910.424891683831 481.9193164647219L1900.309430843744 479.0327705674265L1900.309430843744 471.0759440505339L1925.6106331435158 468.7416069335907L1925.786335937264 468.7416069335907L1929.2250906149116 470.9002412567855L1929.2250906149116 532.8982270508695Q1929.2250906149116 543.3650934784539 1930.7562149604337 549.2385868694723Q1932.2873393059558 555.1120802604909 1936.1779011675276 557.9233249604655Q1940.0684630290998 560.7094692613332 1947.4730807656401 560.7094692613332L1947.4730807656401 560.7094692613332Q1954.7019957084322 560.7094692613332 1961.027296283375 557.6472205702894Q1967.352596858318 554.5849718792456 1972.0463714913117 550.4183056274974L1972.0463714913117 550.4183056274974L1972.0463714913117 481.9193164647219L1959.0443647539287 479.0327705674265L1959.0443647539287 471.0759440505339L1986.5042013768953 468.7416069335907L1986.7050045697506 468.7416069335907L1990.8465704223922 470.9002412567855L1990.8465704223922 561.989589615786L2001.68994283658 561.989589615786L2001.5142400428317 570.1221189264269Q1996.4439594232344 571.3771388817728 1992.7542007545176 572.1050504558733Q1989.0393416866941 572.832962029974 1984.1698642599522 572.832962029974L1984.1698642599522 572.832962029974ZM2029.3505826524024 560.7094692613332L2029.3505826524024 436.3871924847751L2014.7170499730696 434.40426095532865L2014.7170499730696 426.62313723218455L2043.8084125379864 423.18438255453697L2044.159818125483 423.18438255453697L2048.150781583483 425.8952256580839L2048.150781583483 560.9102724541885L2063.5122258369156 562.3409952032828L2063.5122258369156 571.2014360880245L2014.7170499730696 571.2014360880245L2014.7170499730696 562.3409952032828L2029.3505826524024 560.7094692613332ZM2076.33852978055 544.0930050525544Q2076.33852978055 527.1000348571719 2093.3314999759327 519.0679071429586Q2110.2993697722086 511.01067902963825 2136.328483646081 510.483570648393L2136.328483646081 510.483570648393L2136.328483646081 505.41329002879587Q2136.328483646081 496.92935513065805 2134.521254910383 492.0347773048093Q2132.714026174685 487.16529987806746 2128.2963559318678 484.906263958445Q2123.8535852899436 482.6472280388225 2115.7210559793025 482.6472280388225L2115.7210559793025 482.6472280388225Q2106.509209507064 482.6472280388225 2099.2049933669514 485.2576695459418Q2091.8756768277317 487.8932114521681 2084.6467618849397 491.68337171731247L2084.6467618849397 491.68337171731247L2080.1286900456944 482.29582245132565Q2082.488127561745 480.2877905227723 2088.813428136688 477.04983903798006Q2095.138728711631 473.7867871540809 2103.4469608160202 471.25164684428233Q2111.7551929204096 468.7416069335907 2120.063425024799 468.7416069335907L2120.063425024799 468.7416069335907Q2132.8897289684337 468.7416069335907 2140.3947483014017 472.255662808559Q2147.8997676343693 475.76971868352734 2151.1628195182684 483.55084240667145Q2154.400771003061 491.33196612981567 2154.400771003061 504.33397286719844L2154.400771003061 504.33397286719844L2154.400771003061 562.3409952032828L2165.0684406235005 562.3409952032828L2165.0684406235005 570.2978217201754Q2161.4539831521047 571.2014360880245 2155.9318953485827 572.1050504558733Q2150.434907944168 573.0086648237224 2146.26824169242 573.0086648237224L2146.26824169242 573.0086648237224Q2141.2230614719297 573.0086648237224 2139.4158327362316 571.4775404782005Q2137.608604000534 569.9464161326786 2137.608604000534 564.700432719333L2137.608604000534 564.700432719333L2137.608604000534 558.7265377318869Q2132.1869177934395 564.1482239389809 2124.305392473868 568.6662957782258Q2116.448967553403 573.1843676174707 2106.509209507064 573.1843676174707L2106.509209507064 573.1843676174707Q2093.507202769681 573.1843676174707 2084.9228662751157 565.6793482845028Q2076.33852978055 558.1994293506416 2076.33852978055 544.0930050525544L2076.33852978055 544.0930050525544ZM2114.290333230208 560.9102724541885Q2118.9841078632016 560.9102724541885 2125.1337056443963 557.9986261577862Q2131.283303425591 555.1120802604909 2136.328483646081 551.146217201598L2136.328483646081 551.146217201598L2136.328483646081 520.0468227081283Q2116.6246703471516 520.0468227081283 2106.6096111034917 526.121119292002Q2096.569451460725 532.170315476769 2096.569451460725 541.9343707293597L2096.569451460725 541.9343707293597Q2096.569451460725 551.6733255828433 2101.363627690146 556.2917990185159Q2106.157803919567 560.9102724541885 2114.290333230208 560.9102724541885L2114.290333230208 560.9102724541885Z " fill="#243665" transform="matrix(0.4041442679266004,0,0,0.4041442679266004,0,98.6616346079976)"/></g></svg>